<svg width="24" height="25" viewBox="0 0 24 25" fill="none" xmlns="http://www.w3.org/2000/svg">
<path d="M22 9.108V17.25C22.0001 18.0801 21.6824 18.8788 21.1123 19.4822C20.5422 20.0856 19.7628 20.448 18.934 20.495L18.75 20.5H5.25C4.41986 20.5001 3.62117 20.1824 3.01777 19.6123C2.41437 19.0422 2.052 18.2628 2.005 17.434L2 17.25V9.108L11.652 14.164C11.7594 14.2202 11.8788 14.2496 12 14.2496C12.1212 14.2496 12.2406 14.2202 12.348 14.164L22 9.108ZM5.25 4.5H18.75C19.5556 4.4999 20.3325 4.799 20.93 5.33927C21.5276 5.87954 21.9032 6.62248 21.984 7.424L12 12.654L2.016 7.424C2.09352 6.65431 2.44305 5.93752 3.00175 5.40246C3.56045 4.86741 4.29168 4.54919 5.064 4.505L5.25 4.5Z" fill="#144273"/>
</svg>
